<svg xmlns="http://www.w3.org/2000/svg" viewBox="0 0 360 190"><rect width="360" height="190" fill="#3b82f6"/><path d="M0 0h360v110H0z" fill="#38bdf8"/><polygon points="180.0,82.0 197.3,92.0 197.3,112.0 180.0,122.0 162.7,112.0 162.7,92.0" fill="#0ea5e9" stroke="#0f172a" stroke-width="2"/><polygon points="199.1,49.0 216.4,59.0 216.4,79.0 199.1,89.0 181.7,79.0 181.7,59.0" fill="#38bdf8" stroke="#0f172a" stroke-width="2"/><polygon points="218.1,82.0 235.4,92.0 235.4,112.0 218.1,122.0 200.8,112.0 200.8,92.0" fill="#f43f5e" stroke="#0f172a" stroke-width="2"/><polygon points="199.1,115.0 216.4,125.0 216.4,145.0 199.1,155.0 181.7,145.0 181.7,125.0" fill="#38bdf8" stroke="#0f172a" stroke-width="2"/><polygon points="160.9,115.0 178.3,125.0 178.3,145.0 160.9,155.0 143.6,145.0 143.6,125.0" fill="#f43f5e" stroke="#0f172a" stroke-width="2"/><polygon points="141.9,82.0 159.2,92.0 159.2,112.0 141.9,122.0 124.6,112.0 124.6,92.0" fill="#38bdf8" stroke="#0f172a" stroke-width="2"/><polygon points="160.9,49.0 178.3,59.0 178.3,79.0 160.9,89.0 143.6,79.0 143.6,59.0" fill="#0284c7" stroke="#0f172a" stroke-width="2"/><polygon points="237.2,49.0 254.5,59.0 254.5,79.0 237.2,89.0 219.8,79.0 219.8,59.0" fill="#7dd3fc" stroke="#0f172a" stroke-width="2"/><polygon points="122.8,115.0 140.2,125.0 140.2,145.0 122.8,155.0 105.5,145.0 105.5,125.0" fill="#fb7185" stroke="#0f172a" stroke-width="2"/><path d="m180.0 93.0 2.6 5.4 6 .7-4.4 4.1 1.1 5.8-5.3-2.9-5.3 2.9 1.1-5.8-4.4-4.1 6-.7z" fill="#fde047"/></svg>
