<svg xmlns="http://www.w3.org/2000/svg" viewBox="0 0 360 190"><rect width="360" height="190" fill="#1c1c1c"/><circle cx="316" cy="28" r="60" fill="#2c2c2c"/><g transform="translate(58 30) rotate(-7 50 65)"><rect width="98" height="130" rx="15" fill="#fbfbfb"/><circle cx="49" cy="64" r="27" fill="#2a4eef"/><path d="m49 44 6 13 14 2-10 10 3 14-13-7-13 7 3-14-10-10 14-2z" fill="#ffcb05"/></g><g transform="translate(190 25) rotate(8 50 65)"><rect width="98" height="130" rx="15" fill="#fbfbfb"/><circle cx="49" cy="64" r="27" fill="#05bb8c"/><path d="m49 44 6 13 14 2-10 10 3 14-13-7-13 7 3-14-10-10 14-2z" fill="#ffcb05"/></g></svg>